<svg width="34" height="35" viewBox="0 0 34 35" fill="none" xmlns="http://www.w3.org/2000/svg">
<path d="M7.0907 6.30591H26.9286C28.0823 6.30591 29.1889 6.76463 30.0048 7.58032C30.8206 8.39613 31.2791 9.50277 31.2792 10.6565V24.2297C31.2792 25.3835 30.8206 26.49 30.0048 27.3059C29.1889 28.1218 28.0824 28.5803 26.9286 28.5803H7.0907C5.93697 28.5803 4.83034 28.1217 4.01453 27.3059C3.19884 26.4901 2.74011 25.3834 2.74011 24.2297V10.6565C2.74017 9.50277 3.19872 8.39613 4.01453 7.58032C4.83034 6.76451 5.93697 6.30597 7.0907 6.30591ZM4.13269 24.2297C4.13269 25.0142 4.44429 25.7668 4.9989 26.3215C5.55364 26.8763 6.30619 27.1887 7.0907 27.1887H26.9286C27.7132 27.1887 28.4656 26.8763 29.0204 26.3215C29.5752 25.7667 29.8876 25.0143 29.8876 24.2297V13.9631H4.13269V24.2297ZM22.2303 20.9241H25.3632C25.5476 20.9242 25.7249 20.9968 25.8553 21.1272C25.9858 21.2576 26.0584 21.4349 26.0585 21.6194C26.0585 21.8038 25.9856 21.9811 25.8553 22.1116C25.7249 22.242 25.5476 22.3156 25.3632 22.3157H22.2303C22.0458 22.3157 21.8687 22.2421 21.7382 22.1116C21.6078 21.9811 21.5341 21.8039 21.5341 21.6194C21.5342 21.4349 21.6077 21.2576 21.7382 21.1272C21.8687 20.9968 22.0458 20.9241 22.2303 20.9241ZM7.0907 7.69849C6.30619 7.69855 5.55364 8.00996 4.9989 8.5647C4.44417 9.11943 4.13275 9.87199 4.13269 10.6565V12.5706H29.8876V10.6565C29.8875 9.87199 29.5751 9.11943 29.0204 8.5647C28.4656 8.01008 27.713 7.69849 26.9286 7.69849H7.0907Z" fill="#4CAF4F" stroke="#4CAF4F" stroke-width="0.696069"/>
</svg>
