<svg width="34" height="35" viewBox="0 0 34 35" fill="none" xmlns="http://www.w3.org/2000/svg">
<mask id="path-1-inside-1_1554_1781" fill="white">
<path d="M20.0112 17.3533C19.8436 17.3533 19.688 17.3072 19.5497 17.2331V17.2351C19.5497 17.4988 19.4472 17.7464 19.2613 17.9319C19.0753 18.1179 18.8279 18.2203 18.5645 18.2203C18.3944 18.2203 18.2368 18.1731 18.0971 18.097C18.083 18.3383 17.9865 18.5637 17.8145 18.736C17.6285 18.9219 17.3811 19.0244 17.1175 19.0244C16.5939 19.0244 16.1686 18.6128 16.138 18.0969C15.976 18.1844 15.7928 18.2304 15.6039 18.2182C15.0887 18.1844 14.6853 17.7394 14.6853 17.2047V12.7731L14.1807 13.6473C13.9885 13.9817 13.6287 14.1893 13.2414 14.1893C13.0526 14.1893 12.8661 14.1398 12.701 14.0452C12.4954 13.926 12.3483 13.7346 12.2871 13.5056C12.2256 13.2765 12.2574 13.0369 12.3763 12.8316C12.3765 12.8316 14.0274 9.9727 14.1281 9.79709C14.1401 9.77069 14.1742 9.6941 14.2032 9.62883C14.2309 9.56651 14.2547 9.50256 14.2775 9.43827C14.7754 8.03271 16.0081 7.15961 17.4949 7.15961C19.4255 7.15961 20.9963 8.86282 20.9963 10.9564L20.9964 16.3679C20.9964 16.6312 20.8941 16.8787 20.7083 17.0649C20.5223 17.2508 20.2749 17.3533 20.0112 17.3533L20.0112 17.3533ZM17.4949 7.68315C16.2174 7.68315 15.1991 8.40474 14.771 9.61336C14.7436 9.69011 14.715 9.76686 14.6818 9.84164C14.5852 10.0583 14.5852 10.0583 14.5579 10.0894L14.5543 10.0863C14.4195 10.3407 14.0191 11.0342 12.8296 13.0936C12.7808 13.1781 12.7678 13.2761 12.7927 13.3699C12.818 13.4637 12.8785 13.5428 12.9623 13.5912C13.2224 13.7406 13.5786 13.6441 13.7268 13.3859L14.7205 11.6656C14.7798 11.5631 14.8999 11.5127 15.015 11.5439C15.1295 11.5745 15.209 11.6783 15.209 11.7967V17.2049C15.209 17.46 15.4015 17.6803 15.6382 17.6959C15.7746 17.7031 15.9019 17.6573 15.9975 17.5619C16.0844 17.475 16.1323 17.3592 16.1323 17.2354V13.6984C16.1323 13.5537 16.2495 13.4365 16.3942 13.4365C16.5388 13.4365 16.6561 13.5536 16.6561 13.6984L16.6559 18.0393C16.6559 18.2938 16.863 18.501 17.1175 18.501C17.2412 18.501 17.3573 18.4531 17.4444 18.3662C17.5313 18.2791 17.5792 18.163 17.5792 18.0393V13.6984C17.5792 13.5537 17.6963 13.4365 17.8411 13.4365C17.9857 13.4365 18.103 13.5536 18.103 13.6984L18.1028 17.1947V17.2354C18.1028 17.4897 18.3099 17.6968 18.5646 17.6968C18.6881 17.6968 18.8039 17.6488 18.8915 17.5615C18.9784 17.4748 19.0263 17.359 19.0263 17.2352V13.6982C19.0263 13.5536 19.1434 13.4363 19.2882 13.4363C19.4328 13.4363 19.5501 13.5534 19.5501 13.6982L19.5497 16.368C19.5497 16.6227 19.7568 16.8298 20.0112 16.8298C20.135 16.8298 20.2508 16.7818 20.3377 16.695C20.4249 16.6078 20.4727 16.4916 20.4727 16.368L20.4728 10.9565C20.4728 9.15178 19.137 7.68321 17.4949 7.68321L17.4949 7.68315Z"/>
</mask>
<path d="M20.0112 17.3533C19.8436 17.3533 19.688 17.3072 19.5497 17.2331V17.2351C19.5497 17.4988 19.4472 17.7464 19.2613 17.9319C19.0753 18.1179 18.8279 18.2203 18.5645 18.2203C18.3944 18.2203 18.2368 18.1731 18.0971 18.097C18.083 18.3383 17.9865 18.5637 17.8145 18.736C17.6285 18.9219 17.3811 19.0244 17.1175 19.0244C16.5939 19.0244 16.1686 18.6128 16.138 18.0969C15.976 18.1844 15.7928 18.2304 15.6039 18.2182C15.0887 18.1844 14.6853 17.7394 14.6853 17.2047V12.7731L14.1807 13.6473C13.9885 13.9817 13.6287 14.1893 13.2414 14.1893C13.0526 14.1893 12.8661 14.1398 12.701 14.0452C12.4954 13.926 12.3483 13.7346 12.2871 13.5056C12.2256 13.2765 12.2574 13.0369 12.3763 12.8316C12.3765 12.8316 14.0274 9.9727 14.1281 9.79709C14.1401 9.77069 14.1742 9.6941 14.2032 9.62883C14.2309 9.56651 14.2547 9.50256 14.2775 9.43827C14.7754 8.03271 16.0081 7.15961 17.4949 7.15961C19.4255 7.15961 20.9963 8.86282 20.9963 10.9564L20.9964 16.3679C20.9964 16.6312 20.8941 16.8787 20.7083 17.0649C20.5223 17.2508 20.2749 17.3533 20.0112 17.3533L20.0112 17.3533ZM17.4949 7.68315C16.2174 7.68315 15.1991 8.40474 14.771 9.61336C14.7436 9.69011 14.715 9.76686 14.6818 9.84164C14.5852 10.0583 14.5852 10.0583 14.5579 10.0894L14.5543 10.0863C14.4195 10.3407 14.0191 11.0342 12.8296 13.0936C12.7808 13.1781 12.7678 13.2761 12.7927 13.3699C12.818 13.4637 12.8785 13.5428 12.9623 13.5912C13.2224 13.7406 13.5786 13.6441 13.7268 13.3859L14.7205 11.6656C14.7798 11.5631 14.8999 11.5127 15.015 11.5439C15.1295 11.5745 15.209 11.6783 15.209 11.7967V17.2049C15.209 17.46 15.4015 17.6803 15.6382 17.6959C15.7746 17.7031 15.9019 17.6573 15.9975 17.5619C16.0844 17.475 16.1323 17.3592 16.1323 17.2354V13.6984C16.1323 13.5537 16.2495 13.4365 16.3942 13.4365C16.5388 13.4365 16.6561 13.5536 16.6561 13.6984L16.6559 18.0393C16.6559 18.2938 16.863 18.501 17.1175 18.501C17.2412 18.501 17.3573 18.4531 17.4444 18.3662C17.5313 18.2791 17.5792 18.163 17.5792 18.0393V13.6984C17.5792 13.5537 17.6963 13.4365 17.8411 13.4365C17.9857 13.4365 18.103 13.5536 18.103 13.6984L18.1028 17.1947V17.2354C18.1028 17.4897 18.3099 17.6968 18.5646 17.6968C18.6881 17.6968 18.8039 17.6488 18.8915 17.5615C18.9784 17.4748 19.0263 17.359 19.0263 17.2352V13.6982C19.0263 13.5536 19.1434 13.4363 19.2882 13.4363C19.4328 13.4363 19.5501 13.5534 19.5501 13.6982L19.5497 16.368C19.5497 16.6227 19.7568 16.8298 20.0112 16.8298C20.135 16.8298 20.2508 16.7818 20.3377 16.695C20.4249 16.6078 20.4727 16.4916 20.4727 16.368L20.4728 10.9565C20.4728 9.15178 19.137 7.68321 17.4949 7.68321L17.4949 7.68315Z" fill="#4CAF4F"/>
<path d="M20.0112 17.3533V16.4252H23.2902L20.4976 18.1437L20.0112 17.3533ZM19.5497 17.2331H18.6216V15.6824L19.9883 16.4152L19.5497 17.2331ZM19.2613 17.9319L18.605 17.2756L18.6059 17.2748L19.2613 17.9319ZM18.0971 18.097L17.1706 18.0429L17.256 16.5822L18.5409 17.282L18.0971 18.097ZM17.8145 18.736L18.4711 19.3919L18.4708 19.3922L17.8145 18.736ZM16.138 18.0969L15.6967 17.2804L16.9781 16.5878L17.0645 18.0418L16.138 18.0969ZM15.6039 18.2182L15.5444 19.1444L15.5431 19.1443L15.6039 18.2182ZM14.6853 12.7731L13.8815 12.3091L15.6134 9.30872V12.7731H14.6853ZM14.1807 13.6473L13.3761 13.1848L13.3769 13.1834L14.1807 13.6473ZM12.701 14.0452L12.2396 14.8504L12.2355 14.8481L12.701 14.0452ZM12.2871 13.5056L13.1835 13.265L13.1837 13.2661L12.2871 13.5056ZM12.3763 12.8316L11.5731 12.3665L11.8412 11.9035H12.3763V12.8316ZM14.1281 9.79709L14.9734 10.1803L14.9551 10.2205L14.9332 10.2588L14.1281 9.79709ZM14.2032 9.62883L13.3552 9.25171L13.3552 9.2517L14.2032 9.62883ZM14.2775 9.43827L15.1523 9.74815L15.1522 9.7484L14.2775 9.43827ZM20.9963 10.9564L20.0682 10.9564V10.9564H20.9963ZM20.9964 16.3679L21.9245 16.3678V16.3679H20.9964ZM20.7083 17.0649L21.3652 17.7205L21.3645 17.7211L20.7083 17.0649ZM20.0112 17.3533V18.2814H16.7322L19.5248 16.5629L20.0112 17.3533ZM17.4949 7.68315V6.75506H18.7253L18.3873 7.93812L17.4949 7.68315ZM14.771 9.61336L15.6458 9.92328L15.6451 9.92528L14.771 9.61336ZM14.6818 9.84164L15.5296 10.2191L15.5294 10.2196L14.6818 9.84164ZM14.5579 10.0894L15.2568 10.7001L14.6497 11.395L13.9513 10.7918L14.5579 10.0894ZM14.5543 10.0863L13.7343 9.65171L14.2796 8.62275L15.1609 9.38391L14.5543 10.0863ZM12.8296 13.0936L13.6333 13.5578L13.6329 13.5585L12.8296 13.0936ZM12.7927 13.3699L11.8965 13.6112L11.8958 13.6083L12.7927 13.3699ZM12.9623 13.5912L12.5 14.3959L12.4983 14.3949L12.9623 13.5912ZM13.7268 13.3859L12.9219 12.9239L12.9232 12.9217L13.7268 13.3859ZM14.7205 11.6656L13.9168 11.2014L13.9174 11.2004L14.7205 11.6656ZM15.015 11.5439L14.7748 12.4404L14.7725 12.4397L15.015 11.5439ZM15.6382 17.6959L15.5892 18.6227L15.5772 18.6219L15.6382 17.6959ZM15.9975 17.5619L16.6537 18.2181L16.6532 18.2187L15.9975 17.5619ZM16.6561 13.6984H17.5842V13.6984L16.6561 13.6984ZM16.6559 18.0393H15.7278V18.0393L16.6559 18.0393ZM17.4444 18.3662L18.1013 19.0218L18.1 19.0231L17.4444 18.3662ZM18.103 13.6984H19.0311V13.6984L18.103 13.6984ZM18.1028 17.1947H17.1747V17.1946L18.1028 17.1947ZM18.8915 17.5615L19.5471 18.2184L19.5465 18.219L18.8915 17.5615ZM19.5501 13.6982H20.4781V13.6983L19.5501 13.6982ZM19.5497 16.368H18.6216V16.3679L19.5497 16.368ZM20.3377 16.695L20.994 17.3513L20.9933 17.3519L20.3377 16.695ZM20.4727 16.368H19.5446V16.368L20.4727 16.368ZM20.4728 10.9565H21.4009V10.9565L20.4728 10.9565ZM17.4949 7.68321V8.6113H16.2645L16.6025 7.42824L17.4949 7.68321ZM20.0112 17.3533V18.2814C19.6695 18.2814 19.3644 18.1868 19.1112 18.051L19.5497 17.2331L19.9883 16.4152C20.0003 16.4216 20.0079 16.4241 20.0109 16.4249C20.0135 16.4256 20.0132 16.4252 20.0112 16.4252V17.3533ZM19.5497 17.2331H20.4778V17.2351H19.5497H18.6216V17.2331H19.5497ZM19.5497 17.2351H20.4778C20.4778 17.7441 20.2781 18.2286 19.9167 18.589L19.2613 17.9319L18.6059 17.2748C18.6125 17.2681 18.6158 17.2625 18.6177 17.2578C18.6196 17.2532 18.6216 17.246 18.6216 17.2351H19.5497ZM19.2613 17.9319L19.9175 18.5881C19.5574 18.9483 19.0738 19.1484 18.5645 19.1484V18.2203V17.2923C18.5751 17.2923 18.5821 17.2903 18.5869 17.2884C18.5916 17.2864 18.5978 17.2829 18.605 17.2756L19.2613 17.9319ZM18.5645 18.2203V19.1484C18.2183 19.1484 17.9093 19.0516 17.6532 18.9121L18.0971 18.097L18.5409 17.282C18.553 17.2885 18.5607 17.291 18.5637 17.2919C18.5663 17.2926 18.5661 17.2923 18.5645 17.2923V18.2203ZM18.0971 18.097L19.0236 18.1512C18.9969 18.608 18.8116 19.0511 18.4711 19.3919L17.8145 18.736L17.1579 18.08C17.1614 18.0766 17.1633 18.0735 17.165 18.0697C17.1669 18.0655 17.1697 18.057 17.1706 18.0429L18.0971 18.097ZM17.8145 18.736L18.4708 19.3922C18.1105 19.7524 17.6269 19.9525 17.1175 19.9525V19.0244V18.0963C17.1283 18.0963 17.1354 18.0944 17.1401 18.0924C17.1449 18.0904 17.151 18.0869 17.1583 18.0797L17.8145 18.736ZM17.1175 19.0244V19.9525C16.0929 19.9525 15.2707 19.1483 15.2115 18.1519L16.138 18.0969L17.0645 18.0418C17.0654 18.0576 17.0719 18.0715 17.0833 18.0824C17.0889 18.0877 17.0945 18.0911 17.0994 18.0931C17.1037 18.0949 17.1092 18.0963 17.1175 18.0963V19.0244ZM16.138 18.0969L16.5793 18.9133C16.2795 19.0754 15.9241 19.1688 15.5444 19.1444L15.6039 18.2182L15.6634 17.292C15.6634 17.292 15.6654 17.2922 15.6703 17.2911C15.6755 17.2899 15.6846 17.287 15.6967 17.2804L16.138 18.0969ZM15.6039 18.2182L15.5431 19.1443C14.5126 19.0767 13.7572 18.2004 13.7572 17.2047H14.6853H15.6134C15.6134 17.2361 15.6248 17.2603 15.6391 17.276C15.653 17.2914 15.6625 17.292 15.6646 17.2921L15.6039 18.2182ZM14.6853 17.2047H13.7572V12.7731H14.6853H15.6134V17.2047H14.6853ZM14.6853 12.7731L15.4891 13.2371L14.9845 14.1113L14.1807 13.6473L13.3769 13.1834L13.8815 12.3091L14.6853 12.7731ZM14.1807 13.6473L14.9854 14.1098C14.6267 14.7338 13.9592 15.1174 13.2414 15.1174V14.1893V13.2612C13.2983 13.2612 13.3503 13.2297 13.3761 13.1848L14.1807 13.6473ZM13.2414 14.1893V15.1174C12.8904 15.1174 12.5449 15.0254 12.2396 14.8504L12.701 14.0452L13.1624 13.2399C13.1874 13.2542 13.2148 13.2612 13.2414 13.2612V14.1893ZM12.701 14.0452L12.2355 14.8481C11.8188 14.6065 11.5156 14.2134 11.3905 13.7452L12.2871 13.5056L13.1837 13.2661C13.1829 13.2629 13.1806 13.2573 13.1761 13.2515C13.1717 13.2457 13.1676 13.2429 13.1665 13.2423L12.701 14.0452ZM12.2871 13.5056L11.3907 13.7462C11.2651 13.2784 11.3309 12.7849 11.5731 12.3665L12.3763 12.8316L13.1795 13.2967C13.1808 13.2944 13.1831 13.2891 13.1841 13.2816C13.1851 13.2741 13.1843 13.2681 13.1835 13.265L12.2871 13.5056ZM12.3763 12.8316V11.9035C11.921 12.0228 11.5803 12.3544 11.5777 12.3587C11.5769 12.3601 11.5756 12.3623 11.5752 12.363C11.575 12.3634 11.5746 12.364 11.5745 12.3643C11.5744 12.3644 11.5742 12.3647 11.5742 12.3648C11.574 12.365 11.5741 12.3649 11.5744 12.3643C11.5751 12.3632 11.5761 12.3614 11.5777 12.3587C11.5807 12.3535 11.5853 12.3455 11.5913 12.3351C11.6034 12.3142 11.6212 12.2834 11.6438 12.2442C11.6892 12.1657 11.7541 12.0534 11.8322 11.918C11.9886 11.6473 12.1981 11.2844 12.4107 10.9161C12.8368 10.1783 13.2735 9.42162 13.323 9.33536L14.1281 9.79709L14.9332 10.2588C14.8819 10.3482 14.4429 11.1088 14.0182 11.8443C13.8056 12.2126 13.596 12.5755 13.4396 12.8463C13.3614 12.9817 13.2965 13.0941 13.2511 13.1726C13.2285 13.2119 13.2106 13.2428 13.1985 13.2638C13.1924 13.2743 13.1877 13.2825 13.1845 13.288C13.1829 13.2908 13.1816 13.2931 13.1806 13.2947C13.1801 13.2955 13.1796 13.2965 13.1791 13.2974C13.1789 13.2977 13.1783 13.2987 13.1775 13.3C13.1771 13.3007 13.1758 13.303 13.1749 13.3044C13.1723 13.3087 12.8316 13.6404 12.3763 13.7597V12.8316ZM14.1281 9.79709L13.2828 9.41383C13.293 9.3913 13.3254 9.31865 13.3552 9.25171L14.2032 9.62883L15.0512 10.006C15.0229 10.0696 14.9871 10.1501 14.9734 10.1803L14.1281 9.79709ZM14.2032 9.62883L13.3552 9.2517C13.3681 9.22269 13.3824 9.18563 13.4027 9.12815L14.2775 9.43827L15.1522 9.7484C15.127 9.81949 15.0937 9.91034 15.0512 10.006L14.2032 9.62883ZM14.2775 9.43827L13.4027 9.1284C14.0312 7.35378 15.6134 6.23152 17.4949 6.23152V7.15961V8.0877C16.4028 8.0877 15.5195 8.71164 15.1523 9.74815L14.2775 9.43827ZM17.4949 7.15961V6.23152C20.0075 6.23152 21.9244 8.42245 21.9244 10.9564H20.9963H20.0682C20.0682 9.30319 18.8436 8.0877 17.4949 8.0877V7.15961ZM20.9963 10.9564L21.9244 10.9564L21.9245 16.3678L20.9964 16.3679L20.0683 16.3679L20.0682 10.9564L20.9963 10.9564ZM20.9964 16.3679H21.9245C21.9245 16.8768 21.7248 17.3602 21.3652 17.7205L20.7083 17.0649L20.0514 16.4092C20.0588 16.4019 20.0623 16.3956 20.0643 16.3907C20.0664 16.3859 20.0683 16.3787 20.0683 16.3679H20.9964ZM20.7083 17.0649L21.3645 17.7211C21.0043 18.0814 20.5207 18.2814 20.0112 18.2814V17.3533V16.4252C20.0221 16.4252 20.0292 16.4233 20.0339 16.4213C20.0387 16.4193 20.0448 16.4158 20.052 16.4086L20.7083 17.0649ZM20.0112 17.3533L19.5248 16.5629L19.5248 16.5629L20.0112 17.3533L20.4976 18.1437L20.4976 18.1437L20.0112 17.3533ZM17.4949 7.68315V8.61125C16.6125 8.61125 15.9434 9.08329 15.6458 9.92328L14.771 9.61336L13.8961 9.30344C14.4549 7.7262 15.8223 6.75506 17.4949 6.75506V7.68315ZM14.771 9.61336L15.6451 9.92528C15.6158 10.0074 15.5777 10.1111 15.5296 10.2191L14.6818 9.84164L13.8339 9.46419C13.8524 9.42265 13.8714 9.37284 13.8969 9.30145L14.771 9.61336ZM14.6818 9.84164L15.5294 10.2196C15.4869 10.3149 15.4513 10.3954 15.424 10.4499C15.4071 10.4838 15.3798 10.5359 15.3401 10.5937C15.2998 10.6522 15.2601 10.6964 15.2568 10.7001L14.5579 10.0894L13.859 9.47878C13.8612 9.47628 13.8605 9.47709 13.8594 9.47837C13.858 9.48002 13.8544 9.48422 13.8496 9.48999C13.8447 9.49597 13.8386 9.50369 13.8316 9.51287C13.8246 9.52213 13.8175 9.53198 13.8103 9.54237C13.7958 9.56352 13.7846 9.58206 13.7766 9.59607C13.7692 9.60915 13.7646 9.61821 13.7636 9.62025C13.7626 9.62236 13.7632 9.62112 13.7664 9.61436C13.7694 9.60782 13.7738 9.5984 13.78 9.58468C13.7861 9.57109 13.7935 9.55467 13.8026 9.53438C13.8116 9.51412 13.822 9.49091 13.8341 9.4637L14.6818 9.84164ZM14.5579 10.0894L13.9513 10.7918L13.9477 10.7887L14.5543 10.0863L15.1609 9.38391L15.1646 9.38703L14.5579 10.0894ZM14.5543 10.0863L15.3744 10.5209C15.2291 10.795 14.8144 11.5127 13.6333 13.5578L12.8296 13.0936L12.0259 12.6294C13.2237 10.5557 13.6099 9.88634 13.7343 9.65171L14.5543 10.0863ZM12.8296 13.0936L13.6329 13.5585C13.7072 13.4301 13.7279 13.2753 13.6897 13.1316L12.7927 13.3699L11.8958 13.6083C11.8077 13.277 11.8543 12.926 12.0263 12.6288L12.8296 13.0936ZM12.7927 13.3699L13.6889 13.1287C13.6507 12.9868 13.5568 12.8628 13.4263 12.7874L12.9623 13.5912L12.4983 14.3949C12.2001 14.2228 11.9852 13.9407 11.8965 13.6112L12.7927 13.3699ZM12.9623 13.5912L13.4246 12.7864C13.3189 12.7257 13.2162 12.7261 13.1452 12.7452C13.0745 12.7642 12.9839 12.8158 12.9219 12.9239L13.7268 13.3859L14.5318 13.8478C14.1273 14.5526 13.2029 14.7997 12.5 14.3959L12.9623 13.5912ZM13.7268 13.3859L12.9232 12.9217L13.9168 11.2014L14.7205 11.6656L15.5241 12.1297L14.5305 13.85L13.7268 13.3859ZM14.7205 11.6656L13.9174 11.2004C14.1854 10.7376 14.7326 10.506 15.2575 10.648L15.015 11.5439L14.7725 12.4397C15.0671 12.5195 15.3742 12.3885 15.5236 12.1307L14.7205 11.6656ZM15.015 11.5439L15.2552 10.6474C15.7758 10.7869 16.1371 11.2587 16.1371 11.7967H15.209H14.2809C14.2809 12.098 14.4831 12.3622 14.7748 12.4403L15.015 11.5439ZM15.209 11.7967H16.1371V17.2049H15.209H14.2809V11.7967H15.209ZM15.209 17.2049H16.1371C16.1371 17.0991 16.0979 17.003 16.0336 16.9294C15.9694 16.8559 15.8561 16.7801 15.6991 16.7698L15.6382 17.6959L15.5772 18.6219C14.7959 18.5705 14.2809 17.89 14.2809 17.2049H15.209ZM15.6382 17.6959L15.6872 16.7691C15.5775 16.7633 15.4436 16.8034 15.3418 16.905L15.9975 17.5619L16.6532 18.2187C16.3602 18.5112 15.9717 18.6429 15.5892 18.6227L15.6382 17.6959ZM15.9975 17.5619L15.3412 16.9056C15.2531 16.9937 15.2042 17.1144 15.2042 17.2354H16.1323H17.0604C17.0604 17.604 16.9157 17.9562 16.6537 18.2181L15.9975 17.5619ZM16.1323 17.2354H15.2042V13.6984H16.1323H17.0604V17.2354H16.1323ZM16.1323 13.6984H15.2042C15.2042 13.0412 15.737 12.5084 16.3942 12.5084V13.4365V14.3646C16.7621 14.3646 17.0604 14.0663 17.0604 13.6984H16.1323ZM16.3942 13.4365V12.5084C17.051 12.5084 17.5842 13.0406 17.5842 13.6984H16.6561H15.728C15.728 14.0665 16.0266 14.3646 16.3942 14.3646V13.4365ZM16.6561 13.6984L17.5842 13.6984L17.584 18.0394L16.6559 18.0393L15.7278 18.0393L15.728 13.6983L16.6561 13.6984ZM16.6559 18.0393H17.584C17.584 17.7813 17.3756 17.5729 17.1175 17.5729V18.501V19.4291C16.3505 19.4291 15.7278 18.8064 15.7278 18.0393H16.6559ZM17.1175 18.501V17.5729C16.9968 17.5729 16.8767 17.6215 16.7888 17.7093L17.4444 18.3662L18.1 19.0231C17.8379 19.2846 17.4856 19.4291 17.1175 19.4291V18.501ZM17.4444 18.3662L16.7875 17.7105C16.6998 17.7984 16.6511 17.9185 16.6511 18.0393H17.5792H18.5073C18.5073 18.4074 18.3628 18.7597 18.1013 19.0218L17.4444 18.3662ZM17.5792 18.0393H16.6511V13.6984H17.5792H18.5073V18.0393H17.5792ZM17.5792 13.6984H16.6511C16.6511 13.0415 17.1833 12.5084 17.8411 12.5084V13.4365V14.3646C18.2092 14.3646 18.5073 14.0659 18.5073 13.6984H17.5792ZM17.8411 13.4365V12.5084C18.4979 12.5084 19.0311 13.0406 19.0311 13.6984H18.103H17.1749C17.1749 14.0665 17.4735 14.3646 17.8411 14.3646V13.4365ZM18.103 13.6984L19.0311 13.6984L19.0309 17.1947L18.1028 17.1947L17.1747 17.1946L17.1749 13.6983L18.103 13.6984ZM18.1028 17.1947H19.0309V17.2354H18.1028H17.1747V17.1947H18.1028ZM18.1028 17.2354H19.0309C19.0309 16.9767 18.8221 16.7687 18.5646 16.7687V17.6968V18.6249C17.7978 18.6249 17.1747 18.0027 17.1747 17.2354H18.1028ZM18.5646 17.6968V16.7687C18.4413 16.7687 18.3219 16.8189 18.2364 16.904L18.8915 17.5615L19.5465 18.219C19.2859 18.4787 18.9349 18.6249 18.5646 18.6249V17.6968ZM18.8915 17.5615L18.2358 16.9046C18.147 16.9933 18.0982 17.1143 18.0982 17.2352H19.0263H19.9544C19.9544 17.6037 19.8097 17.9563 19.5471 18.2184L18.8915 17.5615ZM19.0263 17.2352H18.0982V13.6982H19.0263H19.9544V17.2352H19.0263ZM19.0263 13.6982H18.0982C18.0982 13.0414 18.6304 12.5082 19.2882 12.5082V13.4363V14.3644C19.6563 14.3644 19.9544 14.0658 19.9544 13.6982H19.0263ZM19.2882 13.4363V12.5082C19.945 12.5082 20.4781 13.0404 20.4781 13.6982H19.5501H18.622C18.622 14.0663 18.9206 14.3644 19.2882 14.3644V13.4363ZM19.5501 13.6982L20.4781 13.6983L20.4778 16.3681L19.5497 16.368L18.6216 16.3679L18.622 13.6981L19.5501 13.6982ZM19.5497 16.368H20.4778C20.4778 16.1105 20.2699 15.9017 20.0112 15.9017V16.8298V17.7579C19.2438 17.7579 18.6216 17.1348 18.6216 16.368H19.5497ZM20.0112 16.8298V15.9017C19.8894 15.9017 19.7693 15.951 19.6821 16.0381L20.3377 16.695L20.9933 17.3519C20.7322 17.6125 20.3806 17.7579 20.0112 17.7579V16.8298ZM20.3377 16.695L19.6814 16.0387C19.5931 16.1271 19.5446 16.2477 19.5446 16.368H20.4727H21.4008C21.4008 16.7356 21.2568 17.0884 20.994 17.3513L20.3377 16.695ZM20.4727 16.368L19.5446 16.368L19.5447 10.9565L20.4728 10.9565L21.4009 10.9565L21.4008 16.368L20.4727 16.368ZM20.4728 10.9565H19.5447C19.5447 9.57977 18.5437 8.6113 17.4949 8.6113V7.68321V6.75511C19.7302 6.75511 21.4009 8.72379 21.4009 10.9565H20.4728ZM17.4949 7.68321L16.6025 7.42824L16.6025 7.42819L17.4949 7.68315L18.3873 7.93812L18.3873 7.93817L17.4949 7.68321Z" fill="#4CAF4F" mask="url(#path-1-inside-1_1554_1781)"/>
<path d="M8.63098 19.1414L8.57922 19.114C8.56695 19.1361 8.5325 19.198 8.48157 19.2898C8.49966 19.2988 8.51798 19.3064 8.53625 19.3132C8.5674 19.2571 8.59863 19.1996 8.63098 19.1414Z" fill="#4CAF4F" stroke="#4CAF4F" stroke-width="0.928093"/>
<mask id="path-4-inside-2_1554_1781" fill="white">
<path d="M27.8812 26.4114C27.3979 27.2174 26.6031 27.7691 25.6429 27.9652C24.6912 28.1592 23.6904 27.9803 22.8242 27.4609L18.1835 24.677C17.9577 24.5416 17.7979 24.3264 17.734 24.0709C17.6705 23.8159 17.7102 23.551 17.8455 23.3254C17.9299 23.1843 18.0483 23.0731 18.1856 22.991L18.1843 22.9902C17.9585 22.8547 17.7988 22.6396 17.7351 22.3844C17.6712 22.1292 17.7109 21.8642 17.8463 21.6382C17.9336 21.4931 18.0531 21.3796 18.1896 21.2991C17.9915 21.1628 17.8488 20.9649 17.7901 20.73C17.7261 20.4747 17.7658 20.2098 17.9013 19.9842C18.0366 19.7583 18.2519 19.5988 18.5071 19.535C18.5868 19.515 18.6676 19.5052 18.7476 19.5052C18.9047 19.5053 19.0589 19.5452 19.2006 19.6193C19.2093 19.4358 19.2639 19.2556 19.3711 19.1009C19.6652 18.6767 20.2542 18.5592 20.7131 18.8346L24.5133 21.1141L24.0235 20.2318C23.8355 19.8949 23.8424 19.4794 24.0417 19.1471C24.1387 18.9854 24.2775 18.8511 24.4433 18.7581C24.5796 18.6827 24.7272 18.647 24.8728 18.647C25.1855 18.6471 25.4892 18.8121 25.6509 19.1042C26.2144 20.1195 27.2777 22.0342 27.3525 22.1679C27.3684 22.191 27.4164 22.2599 27.4576 22.3185C27.4968 22.374 27.5391 22.4272 27.5829 22.48C28.5318 23.6302 28.6462 25.1365 27.8812 26.4114L27.8812 26.4114ZM27.1789 22.8137C27.1267 22.7506 27.0755 22.6861 27.029 22.6197C26.8873 22.4187 26.8837 22.4134 26.873 22.3608C26.7074 22.0868 26.3033 21.3593 25.1926 19.3582C25.0952 19.1826 24.8738 19.1185 24.6975 19.2159C24.6107 19.2644 24.541 19.3322 24.4902 19.4169C24.3872 19.5886 24.3833 19.8031 24.4805 19.9773L25.4445 21.7142C25.502 21.8178 25.4829 21.947 25.3977 22.0293C25.3128 22.1118 25.1829 22.1263 25.0809 22.0656L20.4436 19.2836C20.225 19.1526 19.9368 19.2039 19.8017 19.3991C19.724 19.5112 19.6992 19.645 19.7317 19.7757C19.7615 19.8951 19.8365 19.9958 19.9426 20.0595C19.9429 20.0596 19.9431 20.0599 19.9434 20.0601L22.9755 21.8791C23.0994 21.9536 23.1396 22.1143 23.0652 22.2384C22.9907 22.3622 22.8302 22.4027 22.7059 22.3281L18.9834 20.0951C18.8778 20.0318 18.7535 20.0131 18.6341 20.0431C18.5144 20.0729 18.4137 20.1477 18.3502 20.2538C18.2866 20.3596 18.2682 20.4837 18.2977 20.6031C18.3276 20.7225 18.4025 20.8233 18.5085 20.887L19.2328 21.3214L22.2308 23.1201C22.3547 23.1945 22.3949 23.3552 22.3205 23.4794C22.246 23.6032 22.0855 23.6435 21.9612 23.5691L18.9285 21.7496C18.7104 21.6184 18.4263 21.6896 18.2951 21.908C18.2315 22.0139 18.2131 22.1381 18.2426 22.2575C18.2725 22.3769 18.3474 22.4775 18.4535 22.5413L19.1971 22.9874L21.4862 24.3608C21.6102 24.4353 21.6504 24.596 21.5759 24.7202C21.5015 24.844 21.3409 24.8846 21.2166 24.8099L18.9275 23.4364C18.8219 23.3731 18.6981 23.3544 18.578 23.3844C18.4586 23.4143 18.3576 23.4891 18.2941 23.5948C18.2307 23.7008 18.2121 23.8251 18.2417 23.9443C18.2715 24.0637 18.3465 24.1644 18.4526 24.2282L23.0933 27.0121C23.8463 27.4639 24.7148 27.6203 25.5377 27.4524C26.3521 27.2861 27.0248 26.8209 27.4319 26.1423C28.0896 25.0464 27.995 23.8021 27.1791 22.8137L27.1789 22.8137Z"/>
</mask>
<path d="M27.8812 26.4114C27.3979 27.2174 26.6031 27.7691 25.6429 27.9652C24.6912 28.1592 23.6904 27.9803 22.8242 27.4609L18.1835 24.677C17.9577 24.5416 17.7979 24.3264 17.734 24.0709C17.6705 23.8159 17.7102 23.551 17.8455 23.3254C17.9299 23.1843 18.0483 23.0731 18.1856 22.991L18.1843 22.9902C17.9585 22.8547 17.7988 22.6396 17.7351 22.3844C17.6712 22.1292 17.7109 21.8642 17.8463 21.6382C17.9336 21.4931 18.0531 21.3796 18.1896 21.2991C17.9915 21.1628 17.8488 20.9649 17.7901 20.73C17.7261 20.4747 17.7658 20.2098 17.9013 19.9842C18.0366 19.7583 18.2519 19.5988 18.5071 19.535C18.5868 19.515 18.6676 19.5052 18.7476 19.5052C18.9047 19.5053 19.0589 19.5452 19.2006 19.6193C19.2093 19.4358 19.2639 19.2556 19.3711 19.1009C19.6652 18.6767 20.2542 18.5592 20.7131 18.8346L24.5133 21.1141L24.0235 20.2318C23.8355 19.8949 23.8424 19.4794 24.0417 19.1471C24.1387 18.9854 24.2775 18.8511 24.4433 18.7581C24.5796 18.6827 24.7272 18.647 24.8728 18.647C25.1855 18.6471 25.4892 18.8121 25.6509 19.1042C26.2144 20.1195 27.2777 22.0342 27.3525 22.1679C27.3684 22.191 27.4164 22.2599 27.4576 22.3185C27.4968 22.374 27.5391 22.4272 27.5829 22.48C28.5318 23.6302 28.6462 25.1365 27.8812 26.4114L27.8812 26.4114ZM27.1789 22.8137C27.1267 22.7506 27.0755 22.6861 27.029 22.6197C26.8873 22.4187 26.8837 22.4134 26.873 22.3608C26.7074 22.0868 26.3033 21.3593 25.1926 19.3582C25.0952 19.1826 24.8738 19.1185 24.6975 19.2159C24.6107 19.2644 24.541 19.3322 24.4902 19.4169C24.3872 19.5886 24.3833 19.8031 24.4805 19.9773L25.4445 21.7142C25.502 21.8178 25.4829 21.947 25.3977 22.0293C25.3128 22.1118 25.1829 22.1263 25.0809 22.0656L20.4436 19.2836C20.225 19.1526 19.9368 19.2039 19.8017 19.3991C19.724 19.5112 19.6992 19.645 19.7317 19.7757C19.7615 19.8951 19.8365 19.9958 19.9426 20.0595C19.9429 20.0596 19.9431 20.0599 19.9434 20.0601L22.9755 21.8791C23.0994 21.9536 23.1396 22.1143 23.0652 22.2384C22.9907 22.3622 22.8302 22.4027 22.7059 22.3281L18.9834 20.0951C18.8778 20.0318 18.7535 20.0131 18.6341 20.0431C18.5144 20.0729 18.4137 20.1477 18.3502 20.2538C18.2866 20.3596 18.2682 20.4837 18.2977 20.6031C18.3276 20.7225 18.4025 20.8233 18.5085 20.887L19.2328 21.3214L22.2308 23.1201C22.3547 23.1945 22.3949 23.3552 22.3205 23.4794C22.246 23.6032 22.0855 23.6435 21.9612 23.5691L18.9285 21.7496C18.7104 21.6184 18.4263 21.6896 18.2951 21.908C18.2315 22.0139 18.2131 22.1381 18.2426 22.2575C18.2725 22.3769 18.3474 22.4775 18.4535 22.5413L19.1971 22.9874L21.4862 24.3608C21.6102 24.4353 21.6504 24.596 21.5759 24.7202C21.5015 24.844 21.3409 24.8846 21.2166 24.8099L18.9275 23.4364C18.8219 23.3731 18.6981 23.3544 18.578 23.3844C18.4586 23.4143 18.3576 23.4891 18.2941 23.5948C18.2307 23.7008 18.2121 23.8251 18.2417 23.9443C18.2715 24.0637 18.3465 24.1644 18.4526 24.2282L23.0933 27.0121C23.8463 27.4639 24.7148 27.6203 25.5377 27.4524C26.3521 27.2861 27.0248 26.8209 27.4319 26.1423C28.0896 25.0464 27.995 23.8021 27.1791 22.8137L27.1789 22.8137Z" fill="#4CAF4F"/>
<path d="M27.8812 26.4114L27.5817 25.5329L29.9804 24.7152L28.6772 26.8887L27.8812 26.4114ZM25.6429 27.9652L25.8286 28.8745L25.8283 28.8746L25.6429 27.9652ZM22.8242 27.4609L22.3469 28.2569L22.3467 28.2568L22.8242 27.4609ZM18.1835 24.677L18.6609 23.8811L18.6609 23.8812L18.1835 24.677ZM17.734 24.0709L16.8337 24.2962L16.8334 24.295L17.734 24.0709ZM17.8455 23.3254L18.6417 23.8022L18.6415 23.8026L17.8455 23.3254ZM18.1856 22.991L18.6775 22.204L19.9641 23.0081L18.6623 23.7873L18.1856 22.991ZM18.1843 22.9902L18.6617 22.1943L18.669 22.1987L18.6762 22.2031L18.1843 22.9902ZM17.7351 22.3844L18.6354 22.1587L18.6357 22.1599L17.7351 22.3844ZM17.8463 21.6382L17.0503 21.161L17.0509 21.1601L17.8463 21.6382ZM18.1896 21.2991L18.7156 20.5344L19.9142 21.359L18.6612 22.0984L18.1896 21.2991ZM17.7901 20.73L18.6904 20.5045L18.6905 20.5049L17.7901 20.73ZM17.9013 19.9842L18.6974 20.4612L18.697 20.4618L17.9013 19.9842ZM18.5071 19.535L18.733 20.4352L18.7321 20.4354L18.5071 19.535ZM18.7476 19.5052V18.5771L18.7486 18.5771L18.7476 19.5052ZM19.2006 19.6193L20.1276 19.6632L20.0588 21.1158L18.7703 20.4416L19.2006 19.6193ZM19.3711 19.1009L20.1339 19.6296L20.1338 19.6298L19.3711 19.1009ZM20.7131 18.8346L20.2357 19.6305L20.2356 19.6304L20.7131 18.8346ZM24.5133 21.1141L25.3247 20.6636L27.0058 23.6914L24.0359 21.91L24.5133 21.1141ZM24.0235 20.2318L24.8339 19.7796L24.8349 19.7813L24.0235 20.2318ZM24.0417 19.1471L23.2457 18.6698L23.246 18.6694L24.0417 19.1471ZM24.4433 18.7581L23.9893 17.9486L23.9938 17.9462L24.4433 18.7581ZM24.8728 18.647V17.7189L24.8732 17.7189L24.8728 18.647ZM25.6509 19.1042L24.8394 19.5546L24.8389 19.5536L25.6509 19.1042ZM27.3525 22.1679L26.5878 22.6939L26.5635 22.6585L26.5425 22.621L27.3525 22.1679ZM27.4576 22.3185L26.6991 22.8532L26.6984 22.8523L27.4576 22.3185ZM27.5829 22.48L28.2973 21.8876L28.2988 21.8894L27.5829 22.48ZM27.8812 26.4114L28.1807 27.2898L25.7808 28.108L27.0854 25.9339L27.8812 26.4114ZM27.1789 22.8137L27.2708 23.7373L26.7784 23.7863L26.4633 23.4048L27.1789 22.8137ZM27.029 22.6197L27.7876 22.0851L27.7888 22.0869L27.029 22.6197ZM26.873 22.3608L27.6673 21.8807L27.7507 22.0186L27.7826 22.1766L26.873 22.3608ZM25.1926 19.3582L24.3811 19.8086L24.381 19.8084L25.1926 19.3582ZM24.6975 19.2159L24.2443 18.4059L24.2486 18.4036L24.6975 19.2159ZM24.4902 19.4169L25.2862 19.8942L25.2861 19.8943L24.4902 19.4169ZM24.4805 19.9773L25.2909 19.5249L25.292 19.5269L24.4805 19.9773ZM25.4445 21.7142L24.6331 22.1648L24.633 22.1645L25.4445 21.7142ZM25.3977 22.0293L24.7512 21.3635L24.7525 21.3622L25.3977 22.0293ZM25.0809 22.0656L24.6064 22.8632L24.6035 22.8615L25.0809 22.0656ZM20.4436 19.2836L20.9207 18.4876L20.921 18.4877L20.4436 19.2836ZM19.8017 19.3991L20.5647 19.9274L20.5645 19.9277L19.8017 19.3991ZM19.7317 19.7757L18.8313 20.0008L18.831 19.9995L19.7317 19.7757ZM19.9426 20.0595L19.5274 20.8895L19.4957 20.8736L19.4653 20.8554L19.9426 20.0595ZM19.9434 20.0601L20.3585 19.23L20.3903 19.246L20.4208 19.2643L19.9434 20.0601ZM22.9755 21.8791L23.4529 21.0833L23.4533 21.0835L22.9755 21.8791ZM23.0652 22.2384L23.8611 22.7158L23.8605 22.7167L23.0652 22.2384ZM22.7059 22.3281L23.1833 21.5323L23.1835 21.5324L22.7059 22.3281ZM18.9834 20.0951L19.4605 19.299L19.4608 19.2992L18.9834 20.0951ZM18.6341 20.0431L18.8603 20.9432L18.8586 20.9436L18.6341 20.0431ZM18.3502 20.2538L19.1467 20.7302L19.1455 20.7322L18.3502 20.2538ZM18.2977 20.6031L17.3974 20.8282L17.3968 20.8259L18.2977 20.6031ZM18.5085 20.887L18.0311 21.6829L18.0306 21.6826L18.5085 20.887ZM19.2328 21.3214L19.7102 20.5255L19.7103 20.5256L19.2328 21.3214ZM22.2308 23.1201L22.7083 22.3242L22.7086 22.3244L22.2308 23.1201ZM22.3205 23.4794L23.1164 23.9567L23.1158 23.9577L22.3205 23.4794ZM21.9612 23.5691L21.4843 24.3653L21.4837 24.3649L21.9612 23.5691ZM18.9285 21.7496L18.451 22.5454L18.4501 22.5449L18.9285 21.7496ZM18.2951 21.908L19.0907 22.3859L19.0907 22.3859L18.2951 21.908ZM18.2426 22.2575L17.3423 22.4826L17.3417 22.4802L18.2426 22.2575ZM18.4535 22.5413L17.9761 23.3372L17.9753 23.3367L18.4535 22.5413ZM19.1971 22.9874L19.6745 22.1915L19.6746 22.1916L19.1971 22.9874ZM21.4862 24.3608L21.9637 23.565L21.964 23.5652L21.4862 24.3608ZM21.5759 24.7202L22.3719 25.1975L22.3713 25.1984L21.5759 24.7202ZM21.2166 24.8099L21.6941 24.014L21.6951 24.0146L21.2166 24.8099ZM18.9275 23.4364L19.4046 22.6404L19.405 22.6406L18.9275 23.4364ZM18.578 23.3844L18.3529 22.484L18.3529 22.484L18.578 23.3844ZM18.2941 23.5948L17.498 23.1179L17.4983 23.1173L18.2941 23.5948ZM18.2417 23.9443L17.3413 24.1694L17.3408 24.1673L18.2417 23.9443ZM18.4526 24.2282L17.9751 25.024L17.9743 25.0236L18.4526 24.2282ZM23.0933 27.0121L23.5707 26.2162L23.5707 26.2162L23.0933 27.0121ZM25.5377 27.4524L25.7234 28.3617L25.7233 28.3617L25.5377 27.4524ZM27.4319 26.1423L26.6359 25.6649L26.6361 25.6646L27.4319 26.1423ZM27.1791 22.8137L27.0872 21.8902L27.5798 21.8411L27.8949 22.2229L27.1791 22.8137ZM27.8812 26.4114L28.6772 26.8887C28.0537 27.9285 27.0314 28.6289 25.8286 28.8745L25.6429 27.9652L25.4571 27.0559C26.1748 26.9093 26.7422 26.5063 27.0852 25.9341L27.8812 26.4114ZM25.6429 27.9652L25.8283 28.8746C24.6397 29.1169 23.4035 28.8904 22.3469 28.2569L22.8242 27.4609L23.3014 26.665C23.9773 27.0702 24.7428 27.2015 25.4575 27.0558L25.6429 27.9652ZM22.8242 27.4609L22.3467 28.2568L17.706 25.4729L18.1835 24.677L18.6609 23.8812L23.3016 26.6651L22.8242 27.4609ZM18.1835 24.677L17.7061 25.4729C17.2696 25.2111 16.9575 24.7909 16.8337 24.2962L17.734 24.0709L18.6343 23.8455C18.6368 23.8556 18.6403 23.8619 18.6434 23.866C18.6466 23.8703 18.6517 23.8756 18.6609 23.8811L18.1835 24.677ZM17.734 24.0709L16.8334 24.295C16.7104 23.801 16.7882 23.284 17.0495 22.8481L17.8455 23.3254L18.6415 23.8026C18.6359 23.8119 18.6339 23.8191 18.6331 23.8245C18.6323 23.8298 18.6322 23.837 18.6346 23.8467L17.734 24.0709ZM17.8455 23.3254L17.0492 22.8486C17.2213 22.5612 17.4565 22.3458 17.709 22.1946L18.1856 22.991L18.6623 23.7873C18.651 23.7941 18.645 23.7993 18.6425 23.8017C18.6404 23.8038 18.6407 23.8039 18.6417 23.8022L17.8455 23.3254ZM18.1856 22.991L17.6937 23.778L17.6924 23.7772L18.1843 22.9902L18.6762 22.2031L18.6775 22.204L18.1856 22.991ZM18.1843 22.9902L17.7069 23.7861C17.2706 23.5244 16.9581 23.1041 16.8346 22.6089L17.7351 22.3844L18.6357 22.1599C18.638 22.1693 18.6413 22.1752 18.6443 22.1793C18.6474 22.1834 18.6525 22.1887 18.6617 22.1943L18.1843 22.9902ZM17.7351 22.3844L16.8349 22.61C16.7108 22.1149 16.7889 21.5971 17.0503 21.161L17.8463 21.6382L18.6423 22.1154C18.6367 22.1249 18.6346 22.1322 18.6339 22.1373C18.6331 22.1424 18.633 22.1492 18.6354 22.1587L17.7351 22.3844ZM17.8463 21.6382L17.0509 21.1601C17.2222 20.875 17.4563 20.6541 17.7179 20.4998L18.1896 21.2991L18.6612 22.0984C18.6552 22.1019 18.6511 22.1053 18.6484 22.1079C18.6459 22.1104 18.6438 22.1131 18.6418 22.1164L17.8463 21.6382ZM18.1896 21.2991L17.6636 22.0637C17.2887 21.8058 17.006 21.4205 16.8897 20.9551L17.7901 20.73L18.6905 20.5049C18.6916 20.5093 18.693 20.5124 18.6954 20.5158C18.698 20.5195 18.7038 20.5264 18.7156 20.5344L18.1896 21.2991ZM17.7901 20.73L16.8898 20.9555C16.7658 20.4605 16.8437 19.9427 17.1055 19.5065L17.9013 19.9842L18.697 20.4618C18.6915 20.471 18.6895 20.478 18.6888 20.483C18.6881 20.4879 18.6879 20.4948 18.6904 20.5045L17.7901 20.73ZM17.9013 19.9842L17.1051 19.5072C17.3671 19.07 17.7879 18.7581 18.282 18.6346L18.5071 19.535L18.7321 20.4354C18.7222 20.4379 18.716 20.4413 18.7119 20.4444C18.7078 20.4474 18.7027 20.4523 18.6974 20.4612L17.9013 19.9842ZM18.5071 19.535L18.2811 18.6348C18.4348 18.5962 18.5916 18.5771 18.7476 18.5771V19.5052V20.4332C18.7436 20.4332 18.7387 20.4337 18.733 20.4352L18.5071 19.535ZM18.7476 19.5052L18.7486 18.5771C19.0639 18.5774 19.3645 18.6576 19.6308 18.7969L19.2006 19.6193L18.7703 20.4416C18.7615 20.437 18.7552 20.435 18.7517 20.4341C18.7483 20.4332 18.7468 20.4332 18.7467 20.4332L18.7476 19.5052ZM19.2006 19.6193L18.2735 19.5754C18.2895 19.2379 18.3913 18.8852 18.6085 18.572L19.3711 19.1009L20.1338 19.6298C20.1365 19.6259 20.129 19.6337 20.1276 19.6632L19.2006 19.6193ZM19.3711 19.1009L18.6083 18.5722C19.1962 17.7241 20.3359 17.5259 21.1906 18.0387L20.7131 18.8346L20.2356 19.6304C20.2085 19.6142 20.182 19.6116 20.1612 19.6157C20.1409 19.6197 20.1353 19.6276 20.1339 19.6296L19.3711 19.1009ZM20.7131 18.8346L21.1905 18.0387L24.9907 20.3182L24.5133 21.1141L24.0359 21.91L20.2357 19.6305L20.7131 18.8346ZM24.5133 21.1141L23.7019 21.5646L23.212 20.6823L24.0235 20.2318L24.8349 19.7813L25.3247 20.6636L24.5133 21.1141ZM24.0235 20.2318L23.213 20.684C22.8624 20.0557 22.8764 19.2856 23.2457 18.6698L24.0417 19.1471L24.8376 19.6245C24.8084 19.6731 24.8086 19.7342 24.8339 19.7796L24.0235 20.2318ZM24.0417 19.1471L23.246 18.6694C23.427 18.3679 23.6841 18.1198 23.9893 17.9487L24.4433 18.7581L24.8973 19.5676C24.8709 19.5824 24.8505 19.6029 24.8374 19.6249L24.0417 19.1471ZM24.4433 18.7581L23.9938 17.9462C24.2715 17.7924 24.5744 17.7189 24.8728 17.7189V18.647V19.575C24.876 19.575 24.8796 19.5746 24.8835 19.5737C24.8876 19.5726 24.8908 19.5712 24.8928 19.5701L24.4433 18.7581ZM24.8728 18.647L24.8732 17.7189C25.5075 17.7192 26.1303 18.0538 26.4629 18.6547L25.6509 19.1042L24.8389 19.5536C24.8404 19.5563 24.8428 19.5598 24.8462 19.5632C24.8495 19.5665 24.8528 19.5689 24.8558 19.5706C24.861 19.5737 24.8663 19.575 24.8723 19.575L24.8728 18.647ZM25.6509 19.1042L26.4624 18.6538C27.0265 19.6703 28.0887 21.5829 28.1625 21.7148L27.3525 22.1679L26.5425 22.621C26.4667 22.4855 25.4022 20.5686 24.8394 19.5546L25.6509 19.1042ZM27.3525 22.1679L28.1171 21.6419C28.1302 21.6609 28.176 21.7267 28.2168 21.7846L27.4576 22.3185L26.6984 22.8523C26.6568 22.7932 26.6065 22.7211 26.5878 22.6939L27.3525 22.1679ZM27.4576 22.3185L28.2161 21.7837C28.2353 21.8109 28.2604 21.843 28.2973 21.8876L27.5829 22.48L26.8684 23.0724C26.8178 23.0113 26.7583 22.9372 26.6991 22.8532L27.4576 22.3185ZM27.5829 22.48L28.2988 21.8894C29.4967 23.3415 29.6451 25.2755 28.677 26.8889L27.8812 26.4114L27.0854 25.9339C27.6473 24.9974 27.5668 23.9189 26.867 23.0706L27.5829 22.48ZM27.8812 26.4114L27.5817 25.5329L27.5817 25.5329L27.8812 26.4114L28.1807 27.2898L28.1807 27.2898L27.8812 26.4114ZM27.1789 22.8137L26.4633 23.4048C26.4046 23.3338 26.3359 23.2479 26.2691 23.1526L27.029 22.6197L27.7888 22.0869C27.8151 22.1244 27.8488 22.1674 27.8944 22.2227L27.1789 22.8137ZM27.029 22.6197L26.2703 23.1544C26.2119 23.0715 26.1491 22.9834 26.1074 22.9144C26.0795 22.8683 26.0422 22.8009 26.0107 22.715C25.98 22.6314 25.9664 22.5598 25.9634 22.545L26.873 22.3608L27.7826 22.1766C27.785 22.1881 27.7758 22.1369 27.7532 22.0754C27.7298 22.0116 27.7042 21.9679 27.6963 21.9548C27.6925 21.9485 27.6911 21.9465 27.694 21.9509C27.6968 21.9551 27.7017 21.9624 27.71 21.9745C27.7274 21.9996 27.7512 22.0334 27.7876 22.0851L27.029 22.6197ZM26.873 22.3608L26.0787 22.8409C25.9014 22.5475 25.4841 21.7957 24.3811 19.8086L25.1926 19.3582L26.0041 18.9078C27.1225 20.9229 27.5133 21.626 27.6673 21.8807L26.873 22.3608ZM25.1926 19.3582L24.381 19.8084C24.5312 20.0793 24.8734 20.1791 25.1464 20.0282L24.6975 19.2159L24.2486 18.4036C24.8742 18.0579 25.6591 18.2859 26.0042 18.9081L25.1926 19.3582ZM24.6975 19.2159L25.1507 20.0258C25.2052 19.9953 25.2537 19.9483 25.2862 19.8942L24.4902 19.4169L23.6942 18.9397C23.8284 18.716 24.0163 18.5336 24.2443 18.406L24.6975 19.2159ZM24.4902 19.4169L25.2861 19.8943C25.3526 19.7835 25.3571 19.6434 25.2909 19.5249L24.4805 19.9773L23.6702 20.4298C23.4095 19.9629 23.4219 19.3937 23.6943 18.9395L24.4902 19.4169ZM24.4805 19.9773L25.292 19.5269L26.256 21.2638L25.4445 21.7142L24.633 22.1645L23.669 20.4277L24.4805 19.9773ZM25.4445 21.7142L26.2558 21.2635C26.5171 21.734 26.4304 22.3218 26.043 22.6965L25.3977 22.0293L24.7525 21.3622C24.5354 21.5723 24.4869 21.9016 24.6331 22.1648L25.4445 21.7142ZM25.3977 22.0293L26.0443 22.6952C25.6538 23.0743 25.0635 23.1351 24.6064 22.8632L25.0809 22.0656L25.5554 21.268C25.3024 21.1174 24.9718 21.1494 24.7512 21.3635L25.3977 22.0293ZM25.0809 22.0656L24.6035 22.8615L19.9661 20.0795L20.4436 19.2836L20.921 18.4877L25.5584 21.2697L25.0809 22.0656ZM20.4436 19.2836L19.9664 20.0796C20.057 20.1339 20.1592 20.1497 20.2552 20.1325C20.3511 20.1153 20.4749 20.0572 20.5647 19.9274L19.8017 19.3991L19.0387 18.8707C19.4854 18.2256 20.3348 18.1363 20.9207 18.4876L20.4436 19.2836ZM19.8017 19.3991L20.5645 19.9277C20.637 19.8231 20.665 19.6833 20.6324 19.552L19.7317 19.7757L18.831 19.9995C18.7334 19.6068 18.811 19.1993 19.0389 18.8704L19.8017 19.3991ZM19.7317 19.7757L20.6321 19.5507C20.6017 19.4291 20.5231 19.3254 20.4199 19.2635L19.9426 20.0595L19.4653 20.8554C19.1498 20.6662 18.9214 20.3612 18.8313 20.0008L19.7317 19.7757ZM19.9426 20.0595L20.3577 19.2294C20.4416 19.2713 20.5032 19.3181 20.5423 19.3511C20.5615 19.3674 20.5763 19.3813 20.5853 19.3899C20.5899 19.3943 20.5935 19.3978 20.5957 19.4C20.5969 19.4012 20.5978 19.4021 20.5983 19.4026C20.5986 19.4029 20.5988 19.4031 20.599 19.4033C20.5991 19.4033 20.5991 19.4034 20.5992 19.4034C20.5992 19.4034 20.5992 19.4035 20.5992 19.4035C20.5992 19.4035 20.5992 19.4035 20.5992 19.4035C20.5992 19.4035 20.5992 19.4035 20.5992 19.4035C20.5995 19.4038 20.5978 19.4021 20.5958 19.4001C20.5937 19.398 20.59 19.3944 20.5855 19.3901C20.5766 19.3815 20.5618 19.3677 20.5427 19.3515C20.5038 19.3185 20.4422 19.2719 20.3585 19.23L19.9434 20.0601L19.5283 20.8902C19.4444 20.8482 19.3827 20.8015 19.3437 20.7685C19.3245 20.7522 19.3096 20.7383 19.3007 20.7297C19.2961 20.7253 19.2924 20.7217 19.2902 20.7195C19.2891 20.7184 19.2882 20.7175 19.2876 20.717C19.2874 20.7167 19.2871 20.7164 19.287 20.7163C19.2869 20.7162 19.2869 20.7162 19.2868 20.7161C19.2868 20.7161 19.2868 20.7161 19.2868 20.7161C19.2868 20.7161 19.2868 20.7161 19.2868 20.7161C19.2868 20.7161 19.2868 20.7161 19.2868 20.7161C19.2865 20.7158 19.2882 20.7175 19.2901 20.7194C19.2923 20.7216 19.2959 20.7252 19.3005 20.7295C19.3094 20.738 19.3242 20.7519 19.3433 20.7681C19.3822 20.801 19.4438 20.8477 19.5274 20.8895L19.9426 20.0595ZM19.9434 20.0601L20.4208 19.2643L23.4529 21.0833L22.9755 21.8791L22.498 22.675L19.4659 20.856L19.9434 20.0601ZM22.9755 21.8791L23.4533 21.0835C24.0167 21.4218 24.199 22.1524 23.8611 22.7158L23.0652 22.2384L22.2693 21.7611C22.0803 22.0761 22.1822 22.4853 22.4977 22.6748L22.9755 21.8791ZM23.0652 22.2384L23.8605 22.7167C23.523 23.278 22.7933 23.4631 22.2282 23.1239L22.7059 22.3281L23.1835 21.5324C22.867 21.3424 22.4584 21.4465 22.2698 21.7601L23.0652 22.2384ZM22.7059 22.3281L22.2284 23.124L18.506 20.8909L18.9834 20.0951L19.4608 19.2992L23.1833 21.5323L22.7059 22.3281ZM18.9834 20.0951L18.5063 20.8911C18.6105 20.9536 18.7391 20.9736 18.8603 20.9432L18.6341 20.0431L18.4078 19.143C18.7679 19.0525 19.1451 19.1099 19.4605 19.299L18.9834 20.0951ZM18.6341 20.0431L18.8586 20.9436C18.9791 20.9135 19.0839 20.8352 19.1467 20.7302L18.3502 20.2538L17.5537 19.7774C17.7435 19.4602 18.0496 19.2323 18.4096 19.1425L18.6341 20.0431ZM18.3502 20.2538L19.1455 20.7322C19.2092 20.6262 19.2278 20.4981 19.1987 20.3803L18.2977 20.6031L17.3968 20.8259C17.3086 20.4693 17.3639 20.0929 17.5549 19.7754L18.3502 20.2538ZM18.2977 20.6031L19.1981 20.378C19.1679 20.2571 19.0898 20.1535 18.9863 20.0914L18.5085 20.887L18.0306 21.6826C17.7152 21.4932 17.4873 21.1879 17.3974 20.8282L18.2977 20.6031ZM18.5085 20.887L18.9858 20.091L19.7102 20.5255L19.2328 21.3214L18.7555 22.1173L18.0311 21.6829L18.5085 20.887ZM19.2328 21.3214L19.7103 20.5256L22.7083 22.3242L22.2308 23.1201L21.7533 23.9159L18.7553 22.1172L19.2328 21.3214ZM22.2308 23.1201L22.7086 22.3244C23.272 22.6628 23.4543 23.3934 23.1164 23.9567L22.3205 23.4794L21.5246 23.002C21.3356 23.3171 21.4375 23.7263 21.753 23.9157L22.2308 23.1201ZM22.3205 23.4794L23.1158 23.9577C22.7778 24.5198 22.0481 24.703 21.4843 24.3653L21.9612 23.5691L22.4381 22.7729C22.1228 22.5841 21.7142 22.6866 21.5251 23.0011L22.3205 23.4794ZM21.9612 23.5691L21.4837 24.3649L18.451 22.5454L18.9285 21.7496L19.4059 20.9537L22.4386 22.7732L21.9612 23.5691ZM18.9285 21.7496L18.4501 22.5449C18.673 22.6789 18.9588 22.6055 19.0907 22.3859L18.2951 21.908L17.4995 21.4302C17.8938 20.7736 18.7478 20.5578 19.4068 20.9543L18.9285 21.7496ZM18.2951 21.908L19.0907 22.3859C19.154 22.2805 19.1728 22.1526 19.1436 22.0347L18.2426 22.2575L17.3417 22.4802C17.2535 22.1236 17.309 21.7474 17.4995 21.4301L18.2951 21.908ZM18.2426 22.2575L19.143 22.0324C19.1126 21.9107 19.0341 21.8075 18.9318 21.7459L18.4535 22.5413L17.9753 23.3367C17.6608 23.1476 17.4324 22.843 17.3423 22.4826L18.2426 22.2575ZM18.4535 22.5413L18.931 21.7455L19.6745 22.1915L19.1971 22.9874L18.7196 23.7833L17.9761 23.3372L18.4535 22.5413ZM19.1971 22.9874L19.6746 22.1916L21.9637 23.565L21.4862 24.3608L21.0088 25.1567L18.7196 23.7832L19.1971 22.9874ZM21.4862 24.3608L21.964 23.5652C22.5274 23.9035 22.7097 24.6341 22.3719 25.1975L21.5759 24.7202L20.78 24.2428C20.591 24.5579 20.693 24.9671 21.0084 25.1565L21.4862 24.3608ZM21.5759 24.7202L22.3713 25.1984C22.0343 25.7588 21.3045 25.9458 20.7382 25.6051L21.2166 24.8099L21.6951 24.0146C21.3774 23.8235 20.9687 23.9291 20.7806 24.2419L21.5759 24.7202ZM21.2166 24.8099L20.7391 25.6057L18.45 24.2323L18.9275 23.4364L19.405 22.6406L21.6941 24.014L21.2166 24.8099ZM18.9275 23.4364L18.4503 24.2325C18.5549 24.2951 18.6835 24.3147 18.8031 24.2848L18.578 23.3844L18.3529 22.484C18.7126 22.3941 19.0889 22.4511 19.4046 22.6404L18.9275 23.4364ZM18.578 23.3844L18.8031 24.2848C18.9225 24.255 19.0268 24.1776 19.09 24.0723L18.2941 23.5948L17.4983 23.1173C17.6884 22.8005 17.9947 22.5736 18.3529 22.484L18.578 23.3844ZM18.2941 23.5948L19.0903 24.0718C19.1527 23.9677 19.172 23.8404 19.1426 23.7212L18.2417 23.9443L17.3408 24.1673C17.2522 23.8098 17.3087 23.4339 17.498 23.1179L18.2941 23.5948ZM18.2417 23.9443L19.142 23.7192C19.1116 23.5975 19.0331 23.4943 18.9308 23.4328L18.4526 24.2282L17.9743 25.0236C17.6598 24.8345 17.4314 24.5298 17.3413 24.1694L18.2417 23.9443ZM18.4526 24.2282L18.93 23.4323L23.5707 26.2162L23.0933 27.0121L22.6158 27.808L17.9751 25.024L18.4526 24.2282ZM23.0933 27.0121L23.5707 26.2162C24.1347 26.5546 24.7678 26.6623 25.3522 26.543L25.5377 27.4524L25.7233 28.3617C24.6618 28.5784 23.5579 28.3732 22.6158 27.8079L23.0933 27.0121ZM25.5377 27.4524L25.3521 26.5431C25.926 26.4259 26.3702 26.1079 26.6359 25.6649L27.4319 26.1423L28.2278 26.6196C27.6794 27.5338 26.7782 28.1463 25.7234 28.3617L25.5377 27.4524ZM27.4319 26.1423L26.6361 25.6646C27.0907 24.9073 27.03 24.0909 26.4634 23.4045L27.1791 22.8137L27.8949 22.2229C28.96 23.5133 29.0886 25.1855 28.2276 26.6199L27.4319 26.1423ZM27.1791 22.8137L27.2711 23.7372L27.2708 23.7373L27.1789 22.8137L27.0869 21.8902L27.0872 21.8902L27.1791 22.8137Z" fill="#4CAF4F" mask="url(#path-4-inside-2_1554_1781)"/>
</svg>
