<svg width="35" height="35" viewBox="0 0 35 35" fill="none" xmlns="http://www.w3.org/2000/svg">
<path d="M28.7674 29.9728V27.1885C28.7674 25.7117 28.1807 24.2953 27.1364 23.251C26.0921 22.2067 24.6757 21.62 23.1988 21.62H21.8067C21.4375 21.62 21.0834 21.4733 20.8223 21.2122C20.5612 20.9511 20.4146 20.5971 20.4146 20.2278V13.2671C20.4146 12.5287 20.1212 11.8205 19.5991 11.2984C19.0769 10.7762 18.3687 10.4829 17.6303 10.4829C16.8918 10.4829 16.1836 10.7762 15.6615 11.2984C15.1393 11.8205 14.846 12.5287 14.846 13.2671V25.7964L11.5049 21.3415C11.2455 20.9957 10.9092 20.7151 10.5226 20.5218C10.136 20.3285 9.70969 20.2278 9.27744 20.2278H8.67325C7.46905 20.2278 6.49316 21.2037 6.49316 22.4079C6.49316 22.8033 6.60036 23.1917 6.80361 23.53L10.6696 29.9728M17.6303 6.30645V4.91431ZM25.9831 14.6593H27.3752ZM7.8853 14.6593H9.27744ZM11.1471 8.17609L10.1628 7.19185ZM24.1135 8.17609L25.0977 7.19185Z" fill="#4CAF4F"/>
<path d="M28.7674 29.9728V27.1885C28.7674 25.7117 28.1807 24.2953 27.1364 23.251C26.0921 22.2067 24.6757 21.62 23.1988 21.62H21.8067C21.4375 21.62 21.0834 21.4733 20.8223 21.2122C20.5612 20.9511 20.4146 20.5971 20.4146 20.2278V13.2671C20.4146 12.5287 20.1212 11.8205 19.5991 11.2984C19.0769 10.7762 18.3687 10.4829 17.6303 10.4829C16.8918 10.4829 16.1836 10.7762 15.6615 11.2984C15.1393 11.8205 14.846 12.5287 14.846 13.2671V25.7964L11.5049 21.3415C11.2455 20.9957 10.9092 20.7151 10.5226 20.5218C10.136 20.3285 9.70969 20.2278 9.27744 20.2278H8.67325C7.46905 20.2278 6.49316 21.2037 6.49316 22.4079C6.49316 22.8033 6.60036 23.1917 6.80361 23.53L10.6696 29.9728M17.6303 6.30645V4.91431M25.9831 14.6593H27.3752M7.8853 14.6593H9.27744M11.1471 8.17609L10.1628 7.19185M24.1135 8.17609L25.0977 7.19185" stroke="#4CAF4F" stroke-width="1.39214" stroke-linecap="round" stroke-linejoin="round"/>
</svg>
