<svg width="35" height="35" viewBox="0 0 35 35" fill="none" xmlns="http://www.w3.org/2000/svg">
<g clip-path="url(#clip0_1554_1775)">
<path d="M12.4102 6.97534C14.0518 6.97544 15.6539 7.48045 16.999 8.42163C18.3443 9.36294 19.3672 10.6955 19.9297 12.238C20.4922 13.7805 20.5669 15.4584 20.1436 17.0447C19.7201 18.631 18.8189 20.0492 17.5625 21.1062L17.1396 21.4617L17.6436 21.6892C19.7131 22.6258 21.4937 24.0999 22.8008 25.9578L22.8057 25.9646L22.8115 25.9714C22.9131 26.1015 22.9872 26.2513 23.0293 26.4109C23.0713 26.5704 23.0799 26.737 23.0557 26.9001C23.0314 27.0633 22.9742 27.2197 22.8877 27.3601C22.8012 27.5005 22.6876 27.6225 22.5527 27.7175C22.4179 27.8125 22.2648 27.8787 22.1035 27.9128C21.9421 27.947 21.7751 27.948 21.6133 27.9158C21.4514 27.8835 21.2972 27.8187 21.1611 27.7253H21.1621C21.0261 27.6319 20.9095 27.5123 20.8213 27.3728L20.8174 27.366L20.8125 27.3591L20.6309 27.1091C19.7068 25.8738 18.5157 24.8609 17.1445 24.1482C15.6822 23.3881 14.0582 22.991 12.4102 22.991C10.7619 22.991 9.13733 23.3881 7.6748 24.1482C6.21224 24.9084 4.95399 26.0101 4.00684 27.3591L4.00586 27.3601C3.89454 27.5199 3.74597 27.6501 3.57324 27.74C3.40043 27.8299 3.20848 27.8773 3.01367 27.8767H3.01172C2.76183 27.8775 2.51776 27.7994 2.31445 27.6541L2.3125 27.6531L2.21777 27.5789C2.00629 27.3958 1.86371 27.144 1.81543 26.866C1.76718 26.5879 1.81669 26.303 1.9541 26.0593L2.01855 25.9578C3.32562 24.0999 5.10627 22.6258 7.17578 21.6892L7.67969 21.4617L7.25684 21.1062C6.00041 20.0492 5.09924 18.631 4.67578 17.0447C4.25241 15.4584 4.32716 13.7805 4.88965 12.238C5.45218 10.6955 6.47508 9.36294 7.82031 8.42163C9.16554 7.48035 10.7683 6.97534 12.4102 6.97534ZM23.0459 6.98511H23.0479C24.6906 6.98041 26.2952 7.48288 27.6426 8.42261C28.9899 9.36238 30.015 10.6949 30.5781 12.238C31.1411 13.7811 31.2154 15.4601 30.79 17.0466C30.3645 18.6334 29.4599 20.0508 28.2002 21.1052L27.7754 21.4607L28.2803 21.6892C30.3498 22.6257 32.1304 24.0999 33.4375 25.9578L33.4395 25.9597C33.5322 26.0895 33.5982 26.2368 33.6338 26.3923C33.6693 26.548 33.6738 26.7096 33.6465 26.8669C33.6192 27.0243 33.5606 27.1747 33.4746 27.3093C33.3887 27.4439 33.2768 27.5601 33.1455 27.6511L33.1416 27.6541C32.9383 27.7994 32.6942 27.8765 32.4443 27.8757C32.2492 27.8744 32.0569 27.8271 31.8838 27.7371C31.7106 27.6468 31.5612 27.5165 31.4482 27.3572C30.4992 26.0111 29.241 24.9121 27.7793 24.1531C26.4087 23.4413 24.8965 23.0477 23.3555 22.9998L23.0469 22.9949L22.9258 22.989C22.6472 22.9613 22.3853 22.8381 22.1855 22.6384C21.9571 22.41 21.8282 22.1001 21.8281 21.7771C21.8281 21.454 21.9571 21.1442 22.1855 20.9158C22.414 20.6874 22.7239 20.5593 23.0469 20.5593C24.5236 20.5592 25.9402 19.9717 26.9844 18.9275C28.0285 17.8832 28.6152 16.4667 28.6152 14.99C28.6151 13.5133 28.0286 12.0967 26.9844 11.0525C26.0053 10.0734 24.6987 9.49667 23.3223 9.42847L23.0469 9.42163C22.5378 9.4207 22.0306 9.49095 21.541 9.63062L21.4199 9.66089C21.3014 9.68374 21.18 9.68844 21.0596 9.67554C20.8989 9.65833 20.7431 9.60991 20.6016 9.53198C20.4602 9.45413 20.3357 9.3488 20.2354 9.22241C20.1349 9.09586 20.0604 8.9502 20.0166 8.79468C19.9728 8.63917 19.9608 8.47651 19.9805 8.31616C20.0002 8.15588 20.0518 8.00133 20.1318 7.86108C20.212 7.72079 20.3192 7.59724 20.4473 7.49878C20.5753 7.40043 20.7219 7.32817 20.8779 7.28687L20.8838 7.28589C21.587 7.0857 22.3148 6.98389 23.0459 6.98511ZM13.4961 9.52905C12.4159 9.31419 11.2958 9.42399 10.2783 9.84546C9.26094 10.2669 8.39113 10.9806 7.7793 11.8962C7.16748 12.8119 6.84089 13.8887 6.84082 14.99C6.84082 16.4667 7.42763 17.8832 8.47168 18.9275C9.51599 19.9718 10.9333 20.5593 12.4102 20.5593C13.5111 20.5592 14.5874 20.2324 15.5029 19.6208C16.4187 19.009 17.1332 18.1384 17.5547 17.1208C17.976 16.1035 18.0859 14.984 17.8711 13.9041C17.6562 12.8239 17.1264 11.8313 16.3477 11.0525C15.5689 10.2737 14.5762 9.74393 13.4961 9.52905Z" fill="#4CAF4F" stroke="#4CAF4F" stroke-width="0.696069"/>
</g>
<defs>
<clipPath id="clip0_1554_1775">
<rect width="33.4113" height="33.4113" fill="white" transform="translate(0.924561 0.89502)"/>
</clipPath>
</defs>
</svg>
