<svg width="17" height="17" viewBox="0 0 17 17" fill="none" xmlns="http://www.w3.org/2000/svg">
<g clip-path="url(#clip0_212_1121)">
<path fill-rule="evenodd" clip-rule="evenodd" d="M4.75087 2.03564C6.59474 2.03564 8.08953 3.53042 8.08953 5.37431V2.03564H11.4282C13.2721 2.03564 14.7669 3.53042 14.7669 5.37431C14.7669 7.21819 13.2721 8.71298 11.4282 8.71298C13.2721 8.71298 14.7669 10.2078 14.7669 12.0516C14.7669 12.9672 14.3983 13.7967 13.8015 14.3999L13.789 14.4124L13.7779 14.4235C13.1746 15.0211 12.3445 15.3903 11.4282 15.3903C10.5181 15.3903 9.69306 15.0262 9.0908 14.4356C9.08298 14.4279 9.07517 14.4202 9.06739 14.4124C9.06008 14.4051 9.0528 14.3978 9.04556 14.3904C8.45425 13.788 8.08953 12.9624 8.08953 12.0516C8.08953 13.8955 6.59474 15.3903 4.75087 15.3903C2.90697 15.3903 1.4122 13.8955 1.4122 12.0516V8.71298H4.75087C2.90697 8.71298 1.4122 7.21819 1.4122 5.37431C1.4122 3.53042 2.90697 2.03564 4.75087 2.03564ZM7.4218 5.37431C7.4218 6.84943 6.22599 8.04524 4.75087 8.04524V2.70338C6.22599 2.70338 7.4218 3.89919 7.4218 5.37431ZM14.0991 12.0516C14.0991 10.5765 12.9033 9.38071 11.4282 9.38071C9.95307 9.38071 8.75726 10.5765 8.75726 12.0516H14.0991ZM2.07993 9.38071V12.0516C2.07993 13.5268 3.27575 14.7226 4.75087 14.7226C6.22599 14.7226 7.4218 13.5268 7.4218 12.0516V9.38071H2.07993ZM8.75726 8.04524V2.70338H11.4282C12.9033 2.70338 14.0991 3.89919 14.0991 5.37431C14.0991 6.84943 12.9033 8.04524 11.4282 8.04524H8.75726Z" fill="#263238"/>
</g>
<defs>
<clipPath id="clip0_212_1121">
<rect width="13.3547" height="13.3547" fill="white" transform="translate(1.4122 2.03564)"/>
</clipPath>
</defs>
</svg>
