<svg width="20" height="17" viewBox="0 0 20 17" fill="none" xmlns="http://www.w3.org/2000/svg">
<g clip-path="url(#clip0_212_1127)">
<path d="M19.2992 7.21605C19.3011 7.20213 19.3011 7.18805 19.2992 7.17413C19.301 7.16279 19.301 7.15122 19.2992 7.13985L19.1632 6.16074C19.1436 6.0436 19.0911 5.93411 19.0116 5.84453L18.9883 5.81786L18.9456 5.77595L16.5906 3.78725L16.6567 3.85202C16.6026 3.78862 16.5348 3.73791 16.4581 3.70363C16.3815 3.66934 16.2979 3.65235 16.2137 3.65391H15.4986C15.3824 3.65165 15.2687 3.68789 15.1761 3.75677C15.0788 3.68831 14.9617 3.65225 14.8419 3.65391H14.1268C14.0331 3.65242 13.9406 3.67523 13.8587 3.72006C13.7768 3.76488 13.7084 3.83012 13.6605 3.90916C13.5867 4.02206 13.5589 4.15808 13.5828 4.29014L13.6722 4.90732C13.613 4.87441 13.5459 4.85734 13.4779 4.8578H10.0154C9.89116 4.85856 9.76979 4.89426 9.66563 4.96066C9.56492 5.02246 9.48407 5.11096 9.43248 5.21591L9.16433 4.99114C9.0588 4.89541 8.9195 4.84352 8.77573 4.84637H3.34301C3.21834 4.84859 3.09644 4.88274 2.98939 4.94542C2.84293 5.02946 2.7356 5.16611 2.69015 5.3264L0.964737 10.9839C0.932498 11.0771 0.929326 11.1777 0.955629 11.2727C0.981931 11.3677 1.03652 11.4528 1.11241 11.5173C1.13218 11.5337 1.15295 11.549 1.17459 11.563C1.17459 11.563 1.13961 11.5401 1.12018 11.5211L3.47514 13.5136C3.57476 13.6035 3.70501 13.6538 3.84041 13.6546H9.3159C9.44095 13.6514 9.56293 13.6159 9.66954 13.5517C9.72983 13.5194 9.78377 13.4768 9.82886 13.426L9.84829 13.3993L9.87938 13.3612L9.90269 13.3193L10.1592 13.5365C10.2574 13.6228 10.3848 13.6703 10.5167 13.6698H16.0038C16.1287 13.6657 16.2505 13.6303 16.3574 13.5669C16.4164 13.5327 16.47 13.4903 16.5168 13.4412L16.5362 13.4145L16.5673 13.3765C16.5838 13.3523 16.5981 13.3269 16.61 13.3002C16.6227 13.2772 16.6331 13.2529 16.6411 13.2279L18.215 8.06182V8.0161C18.2169 7.99837 18.2169 7.98049 18.215 7.96276V7.92849C18.2169 7.91712 18.2169 7.90555 18.215 7.89418C18.2167 7.87009 18.2167 7.8459 18.215 7.82179H18.7202C18.7641 7.82575 18.8083 7.82575 18.8523 7.82179H18.8873C18.9157 7.81348 18.9431 7.80196 18.9689 7.78751H19.0078L19.0777 7.73418L19.1088 7.71131L19.1632 7.64273V7.61989L19.2021 7.55511C19.1999 7.54252 19.1999 7.52962 19.2021 7.51703C19.2 7.51084 19.2 7.50416 19.2021 7.49797C19.2103 7.47564 19.2168 7.4527 19.2215 7.42939C19.2197 7.42188 19.2197 7.41404 19.2215 7.40653C19.2196 7.39518 19.2196 7.38359 19.2215 7.37225C19.2215 7.37225 19.2992 7.22366 19.2992 7.21605Z" fill="black"/>
<path d="M8.93502 5.28056C8.95565 5.29885 8.97006 5.32289 8.97631 5.34946C8.98259 5.37603 8.98037 5.40384 8.97001 5.42914L7.24849 11.0828C7.22681 11.1446 7.18246 11.1962 7.12413 11.2276C7.07667 11.2587 7.02173 11.2771 6.96478 11.281H1.49321C1.44649 11.2788 1.40222 11.2598 1.36886 11.2276C1.34901 11.2096 1.33509 11.1862 1.32886 11.1605C1.32262 11.1347 1.32438 11.1077 1.33388 11.0828L3.0593 5.42914C3.07918 5.36663 3.12214 5.31365 3.17977 5.28056C3.22801 5.25167 3.28268 5.23467 3.33909 5.23103H8.81067C8.85703 5.23147 8.90148 5.24917 8.93502 5.28056ZM6.07876 9.94372L7.10857 6.56826H4.22513L3.19919 9.94372H6.07876ZM14.1579 5.3377C14.1766 5.35897 14.1999 5.37584 14.2261 5.38705C14.2524 5.39826 14.2809 5.40353 14.3095 5.40247H15.0206C15.0477 5.40273 15.0744 5.39622 15.0982 5.38355C15.122 5.37089 15.1421 5.35248 15.1566 5.33008C15.1692 5.31258 15.1782 5.29277 15.1828 5.27183C15.1875 5.25089 15.1878 5.22924 15.1838 5.20817L15.0439 4.20239C15.0306 4.15584 15.0067 4.11286 14.974 4.07667C14.9553 4.0554 14.932 4.03853 14.9057 4.02732C14.8795 4.0161 14.851 4.01084 14.8224 4.0119H14.1113C14.0842 4.01164 14.0575 4.01815 14.0337 4.03082C14.0099 4.04348 13.9898 4.06189 13.9753 4.08429C13.9481 4.13762 13.9364 4.17191 13.9481 4.20239L14.0918 5.20817C14.0992 5.25714 14.1224 5.30252 14.1579 5.3377ZM16.4157 4.19477C16.4024 4.14822 16.3785 4.10523 16.3458 4.06905C16.3279 4.04786 16.3052 4.03099 16.2796 4.01976C16.254 4.00853 16.2261 4.00323 16.1981 4.00428H15.483C15.4564 4.00354 15.4301 4.00987 15.4068 4.02261C15.3836 4.03536 15.3642 4.05404 15.3509 4.07667C15.3251 4.11047 15.3139 4.15292 15.3198 4.19477L15.4636 5.20055C15.4726 5.24901 15.4955 5.29394 15.5297 5.33008C15.5487 5.35093 15.5721 5.36752 15.5982 5.3787C15.6244 5.38987 15.6527 5.39538 15.6812 5.39484H16.3963C16.4229 5.39519 16.449 5.38869 16.4722 5.37598C16.4954 5.36328 16.5148 5.34482 16.5284 5.32246C16.5419 5.30542 16.5514 5.28562 16.5561 5.26452C16.5608 5.24343 16.5606 5.22157 16.5556 5.20055L16.4157 4.19477ZM13.5322 5.71868L13.4623 5.22341H10.0154C9.96124 5.22633 9.90888 5.24344 9.86379 5.27293C9.83517 5.28824 9.81026 5.30945 9.7908 5.3351C9.77136 5.36075 9.75782 5.39023 9.75111 5.42152L9.46353 6.36633C9.45206 6.38995 9.44813 6.41644 9.45229 6.44228C9.45647 6.46812 9.46851 6.49211 9.48685 6.51111C9.51962 6.54131 9.56239 6.55892 9.60732 6.56064H13.7965L12.7667 9.93611H8.58917C8.5353 9.93731 8.48284 9.95314 8.43762 9.98181C8.38266 10.016 8.34252 10.0689 8.32492 10.1304L8.03347 11.0752C8.02395 11.0995 8.02145 11.1258 8.02625 11.1514C8.03107 11.1769 8.04295 11.2007 8.06065 11.22C8.09241 11.2522 8.13551 11.2713 8.18113 11.2733H13.6683C13.725 11.2685 13.7797 11.2502 13.8276 11.22C13.885 11.1884 13.928 11.1367 13.9481 11.0752L15.5258 5.90917H13.7499C13.7217 5.90971 13.6937 5.90458 13.6676 5.8941C13.6416 5.88361 13.618 5.86799 13.5983 5.84821C13.5662 5.81366 13.5435 5.77173 13.5322 5.7263V5.71868Z" fill="white"/>
</g>
<defs>
<clipPath id="clip0_212_1127">
<rect width="18.3627" height="10.016" fill="white" transform="translate(0.937988 3.65381)"/>
</clipPath>
</defs>
</svg>
