<svg width="17" height="17" viewBox="0 0 17 17" fill="none" xmlns="http://www.w3.org/2000/svg">
<g clip-path="url(#clip0_212_1124)">
<path fill-rule="evenodd" clip-rule="evenodd" d="M5.17761 5.36153L1.84369 8.66192C2.51053 9.32208 3.2723 9.87843 4.10284 10.3137C4.33241 10.9165 4.69225 11.4819 5.18235 11.967C7.02627 13.7924 10.0158 13.7924 11.8597 11.967C12.3498 11.4819 12.7096 10.9165 12.9392 10.3137C13.7697 9.87843 14.5315 9.32208 15.1984 8.66192L11.8671 5.36421C11.8647 5.36174 11.8622 5.35928 11.8597 5.35681C10.0158 3.53145 7.02627 3.53145 5.18235 5.35681C5.18078 5.35838 5.17919 5.35995 5.17761 5.36153ZM11.5407 10.9091C10.5691 11.2337 9.54923 11.4 8.52102 11.4C7.49281 11.4 6.47295 11.2337 5.5014 10.9091C5.60667 11.0474 5.72288 11.1801 5.85009 11.306C7.32521 12.7663 9.71683 12.7663 11.192 11.306C11.3192 11.1801 11.4354 11.0474 11.5407 10.9091ZM5.91856 5.95173C6.16906 6.11556 6.43542 6.25575 6.71413 6.37005C7.28698 6.60495 7.90096 6.72585 8.52102 6.72585C9.14108 6.72585 9.75506 6.60495 10.3279 6.37005C10.6066 6.25575 10.873 6.11556 11.1235 5.95172C9.66678 4.57958 7.37526 4.57958 5.91856 5.95173Z" fill="#3B4158"/>
</g>
<defs>
<clipPath id="clip0_212_1124">
<rect width="13.3547" height="9.34826" fill="white" transform="translate(1.84369 3.98779)"/>
</clipPath>
</defs>
</svg>
